
<svg xmlns="http://www.w3.org/2000/svg" viewBox="0 0 1440 320">
  <path fill="#D4AF37" fill-opacity="0.1" d="M0,160L48,154.7C96,149,192,139,288,138.7C384,139,480,149,576,154.7C672,160,768,160,864,160C960,160,1056,160,1152,165.3C1248,171,1344,181,1392,186.7L1440,192L1440,320L1392,320C1344,320,1248,320,1152,320C1056,320,960,320,864,320C768,320,672,320,576,320C480,320,384,320,288,320C192,320,96,320,48,320L0,320Z"></path>
  <path fill="#D4AF37" fill-opacity="0.2" d="M0,192L48,197.3C96,203,192,213,288,202.7C384,192,480,160,576,165.3C672,171,768,213,864,213.3C960,213,1056,171,1152,160C1248,149,1344,171,1392,181.3L1440,192L1440,320L1392,320C1344,320,1248,320,1152,320C1056,320,960,320,864,320C768,320,672,320,576,320C480,320,384,320,288,320C192,320,96,320,48,320L0,320Z"></path>
</svg>
